<?xml version="1.0" encoding="utf-8"?>
<!-- Generator: Adobe Illustrator 23.0.1, SVG Export Plug-In . SVG Version: 6.00 Build 0)  -->
<svg version="1.1" id="Layer_1" xmlns="http://www.w3.org/2000/svg" xmlns:xlink="http://www.w3.org/1999/xlink" x="0px" y="0px"
	 viewBox="0 0 1000 1000" style="enable-background:new 0 0 1000 1000;" xml:space="preserve">
<path d="M353.57,227.96c0-32.89,0-65.47,0-97.97c4.57,0,8.86-0.12,13.14,0.03c8.52,0.3,14.56-3.47,18.46-10.92
	c3.69-7.05,4.5-14.7,4.64-22.47c0.15-8.56,1.56-16.87,5.57-24.49c6.51-12.37,16.68-19.01,30.91-19c40.6,0.02,81.2,0.35,121.79-0.14
	c20.09-0.24,33.17,12.97,34.94,32.91c0.68,7.67,0.7,15.41,1.58,23.05c0.41,3.5,1.79,7.04,3.41,10.22
	c3.78,7.44,9.96,11.18,18.49,10.84c4.18-0.17,8.37-0.03,12.93-0.03c0,32.51,0,65.19,0,97.86c6.11,0.64,11.91,0.88,17.56,1.91
	c33.47,6.11,53.36,30.15,53.31,64.26c-0.02,14.61-0.27,29.23-0.33,43.84c-0.15,35.76-0.24,71.52-0.38,107.27
	c-0.1,26.57-0.27,53.15-0.35,79.72c-0.11,39.98-0.3,79.97-0.22,119.95c0.11,51.46,0.43,102.92,0.7,154.38
	c0.15,27.9,0.5,55.8,0.57,83.7c0.09,34.19-23.49,60.12-57.6,63.47c-4.92,0.48-9.88,0.73-14.82,0.73
	c-88.68,0.04-177.36,0.11-266.05-0.03c-17.74-0.03-34.26-4.57-47.73-16.84c-14.71-13.41-20.19-30.74-20.1-50.17
	c0.04-9.66,0.3-19.32,0.34-28.98c0.08-23.19,0.05-46.39,0.14-69.59c0.21-52.18,0.48-104.37,0.71-156.55
	c0.1-22.83,0.26-45.66,0.22-68.49c-0.08-38.41-0.28-76.83-0.46-115.24c-0.22-46.99-0.28-93.98-0.84-140.96
	c-0.16-13.27,1-26.07,7.07-37.98c9.98-19.56,26.77-29.45,47.91-32.79C343.7,228.74,348.4,228.49,353.57,227.96z M658.38,568.07
	c0.14-1.78,0.37-3.31,0.38-4.83c0.14-26.21,0.28-52.42,0.38-78.63c0.14-36.12,0.22-72.24,0.37-108.35
	c0.06-14.49,0.26-28.98,0.35-43.48c0.08-13.41,0.16-26.82,0.11-40.23c-0.07-17.74-9.78-29.56-27.19-32.68
	c-5.67-1.02-11.52-1.37-17.28-1.38c-85.54-0.08-171.07-0.07-256.61-0.03c-4.58,0-9.18,0.23-13.73,0.73
	c-19.8,2.19-31.41,15.46-30.97,35.15c0.22,10.02,0.42,20.04,0.48,30.06c0.27,52.18,0.52,104.36,0.73,156.54
	c0.09,23.19,0.09,46.39,0.13,69.59c0.01,5.76,0,11.51,0,17.64C324.99,568.17,559.29,568.07,658.38,568.07z M588.81,228.16
	c0.17-0.78,0.31-1.12,0.32-1.47c0.02-22.22,0.07-44.44-0.06-66.66c-0.01-1.08-1.41-2.65-2.53-3.13c-8.3-3.55-15.23-8.8-20.65-16.01
	c-8.43-11.2-11.8-24.13-12.61-37.87c-0.31-5.16-0.38-10.34-0.6-15.51c-0.13-3.07-1.59-4.22-4.85-4.22
	c-39.97,0.11-79.95,0.12-119.92,0c-3.57-0.01-5.41,1.4-6.34,4.53c-0.41,1.38-0.83,2.79-0.97,4.22c-0.74,7.31-0.89,14.72-2.18,21.93
	c-3.57,19.84-13.29,35.24-32.72,43.26c-0.96,0.4-1.81,2.36-1.82,3.6c-0.11,21.38-0.08,42.75-0.07,64.13c0,1.03,0.16,2.06,0.25,3.19
	C452.47,228.16,520.54,228.16,588.81,228.16z"/>
</svg>
